<svg width="300" height="72" viewBox="0 0 300 72" fill="none" xmlns="http://www.w3.org/2000/svg">
<rect width="300" height="72" fill="white"/>
<path d="M7.57168 11.3078L18.8145 27.6001L30.1721 11.3078H37.2275L22.0267 32.354V44.0771H15.6023V32.2617L0.516235 11.3078H7.57168ZM49.7555 44.5386C46.6199 44.5386 43.8857 43.9693 41.5528 42.8309C39.2584 41.6616 37.4802 40.1385 36.2182 38.2617C34.9563 36.3539 34.3253 34.277 34.3253 32.0309C34.3253 29.7848 34.9563 27.7231 36.2182 25.8463C37.5186 23.9385 39.3158 22.4155 41.6102 21.2771C43.9431 20.1078 46.658 19.5232 49.7555 19.5232C52.853 19.5232 55.549 20.1078 57.8435 21.2771C60.1764 22.4155 61.9735 23.9385 63.2354 25.8463C64.5358 27.7231 65.1857 29.7848 65.1857 32.0309C65.1857 34.277 64.5548 36.3539 63.2928 38.2617C62.0309 40.1385 60.2337 41.6616 57.9008 42.8309C55.6064 43.9693 52.8915 44.5386 49.7555 44.5386ZM40.8071 32.0771C40.8071 33.6156 41.2087 35.0002 42.0117 36.2309C42.8148 37.4616 43.8857 38.4308 45.224 39.1386C46.5625 39.8464 48.0731 40.2001 49.7555 40.2001C51.4001 40.2001 52.8915 39.8464 54.2297 39.1386C55.6064 38.4001 56.6962 37.4155 57.4993 36.1848C58.3024 34.9541 58.7039 33.5695 58.7039 32.0309C58.7039 30.4924 58.3024 29.1078 57.4993 27.8771C56.6962 26.6464 55.6064 25.6771 54.2297 24.9694C52.8915 24.2309 51.4001 23.8617 49.7555 23.8617C48.1113 23.8617 46.6006 24.2309 45.224 24.9694C43.8857 25.6771 42.8148 26.6616 42.0117 27.9232C41.2087 29.1539 40.8071 30.5385 40.8071 32.0771ZM70.4954 34.7078V19.9386H76.8051V33.6925C76.8051 38.0309 78.717 40.2001 82.5413 40.2001C84.3384 40.2001 86.0403 39.7541 87.6464 38.8617C89.2526 37.9386 90.4953 36.6463 91.3749 34.9848V19.9386H97.6847V38.354C97.6847 38.9385 97.8183 39.3539 98.0862 39.6001C98.3538 39.8464 98.7935 39.9848 99.4055 40.0155V44.0771C98.7553 44.1694 98.2199 44.231 97.7994 44.2617C97.3787 44.2924 96.9771 44.3078 96.5948 44.3078C95.4476 44.3078 94.4914 44.0616 93.7267 43.5694C92.9618 43.0771 92.5222 42.4155 92.4074 41.5848L92.2927 39.1848C90.9542 40.9386 89.2141 42.2771 87.0728 43.2001C84.9312 44.0925 82.5794 44.5386 80.0174 44.5386C76.8814 44.5386 74.5107 43.7078 72.9046 42.0463C71.2984 40.3848 70.4954 37.9386 70.4954 34.7078ZM138.547 35.6309C138.547 37.3848 137.974 38.8924 136.827 40.154C135.679 41.4156 134.15 42.3848 132.238 43.0617C130.364 43.7385 128.28 44.0771 125.985 44.0771H106.54V11.3078H127.534C129.446 11.3078 131.09 11.7232 132.467 12.554C133.844 13.354 134.915 14.4001 135.679 15.6925C136.444 16.9848 136.827 18.3078 136.827 19.6617C136.827 21.2617 136.31 22.7694 135.278 24.1848C134.284 25.5694 132.849 26.6002 130.976 27.2771C133.27 27.8309 135.106 28.8463 136.482 30.3232C137.859 31.7695 138.547 33.5385 138.547 35.6309ZM112.964 15.7848V25.4309H124.781C126.387 25.4309 127.725 24.9848 128.796 24.0925C129.867 23.1694 130.402 22.0155 130.402 20.6309C130.402 19.2155 129.905 18.0617 128.911 17.1694C127.916 16.2463 126.654 15.7848 125.125 15.7848H112.964ZM131.951 34.6617C131.951 33.3078 131.415 32.1232 130.345 31.1078C129.312 30.0925 127.993 29.5848 126.387 29.5848H112.964V39.6001H125.985C127.668 39.6001 129.083 39.1231 130.23 38.1694C131.377 37.1847 131.951 36.0156 131.951 34.6617ZM142.265 37.0155C142.265 35.477 142.8 34.1385 143.871 33.0001C144.942 31.8308 146.433 30.9387 148.345 30.3232C150.295 29.6771 152.532 29.354 155.056 29.354C156.395 29.354 157.752 29.4463 159.129 29.6309C160.544 29.7848 161.787 30.0156 162.858 30.3232V28.8001C162.858 27.1079 162.227 25.7847 160.965 24.8309C159.703 23.8771 157.886 23.4001 155.515 23.4001C153.871 23.4001 152.284 23.6309 150.754 24.0925C149.224 24.554 147.638 25.2308 145.993 26.1232L143.871 22.7078C145.859 21.6617 147.848 20.8771 149.836 20.354C151.863 19.8001 153.985 19.5232 156.204 19.5232C160.219 19.5232 163.374 20.3848 165.668 22.1078C168.001 23.8001 169.167 26.2155 169.167 29.354V38.354C169.167 38.9385 169.282 39.3539 169.511 39.6001C169.779 39.8464 170.219 39.9848 170.831 40.0155V44.0771C170.257 44.1694 169.741 44.231 169.282 44.2617C168.823 44.2924 168.441 44.3078 168.135 44.3078C166.758 44.3078 165.726 44.0464 165.037 43.5232C164.387 42.9694 164.005 42.3539 163.89 41.6771L163.718 40.2925C162.418 41.6464 160.754 42.6925 158.727 43.4309C156.701 44.1694 154.655 44.5386 152.59 44.5386C150.601 44.5386 148.823 44.2155 147.255 43.5694C145.687 42.8925 144.463 41.9847 143.584 40.8463C142.704 39.7079 142.265 38.4308 142.265 37.0155ZM161.366 38.4925C162.36 37.6924 162.858 36.9387 162.858 36.2309V33.4617C160.601 32.7848 158.307 32.4463 155.974 32.4463C153.68 32.4463 151.806 32.831 150.353 33.6001C148.938 34.3386 148.23 35.3385 148.23 36.6001C148.23 37.6462 148.747 38.6155 149.779 39.5078C150.85 40.3693 152.379 40.8001 154.368 40.8001C155.706 40.8001 157.007 40.5848 158.269 40.154C159.531 39.7231 160.563 39.1693 161.366 38.4925ZM203.725 44.0771H197.415V30.554C197.415 28.277 196.956 26.6309 196.038 25.6155C195.159 24.5695 193.84 24.0463 192.08 24.0463C190.857 24.0463 189.633 24.2925 188.409 24.7848C187.224 25.277 186.153 25.9541 185.197 26.8155C184.241 27.677 183.553 28.6462 183.132 29.7232V44.0771H176.822V19.9386H182.558V24.7848C183.706 23.1848 185.369 21.9078 187.549 20.954C189.728 20.0002 192.138 19.5232 194.776 19.5232C197.147 19.5232 198.983 19.9848 200.283 20.9078C201.583 21.8002 202.482 22.9848 202.979 24.4617C203.476 25.9386 203.725 27.5695 203.725 29.354V44.0771ZM231.928 44.0771L222.291 32.954L217.358 36.7386V44.0771H211.049V10.3848H217.358V31.6155L231.24 19.9848H238.008L226.364 30.0925L238.639 44.0771H231.928Z" fill="black"/>
<path d="M131.903 54.3923H127.859V66H126.568V54.3923H124.216V53.4692H126.568V52.5923C126.568 51.2845 126.979 50.3153 127.801 49.6846C128.623 49.0384 129.971 48.7153 131.845 48.7153V49.6384C130.354 49.6384 129.312 49.8692 128.719 50.3307C128.145 50.7923 127.859 51.5462 127.859 52.5923V53.4692H131.903V54.3923ZM142.063 66.1846C140.61 66.1846 139.3 65.9231 138.134 65.3999C136.968 64.8768 136.05 64.1307 135.381 63.1615C134.73 62.1768 134.406 61.0308 134.406 59.723C134.406 58.4307 134.74 57.2999 135.409 56.3307C136.078 55.346 136.996 54.5999 138.163 54.0923C139.348 53.5691 140.667 53.3076 142.121 53.3076C143.574 53.3076 144.883 53.5691 146.05 54.0923C147.216 54.5999 148.124 55.3384 148.775 56.3076C149.444 57.2769 149.778 58.4153 149.778 59.723C149.778 61.0308 149.444 62.1768 148.775 63.1615C148.105 64.1307 147.178 64.8768 145.993 65.3999C144.826 65.9231 143.516 66.1846 142.063 66.1846ZM142.063 65.2615C143.191 65.2615 144.243 65.0614 145.218 64.6615C146.212 64.2461 147.006 63.623 147.599 62.7923C148.191 61.9615 148.488 60.9385 148.488 59.723C148.488 58.523 148.191 57.5076 147.599 56.6769C147.006 55.8461 146.222 55.2306 145.247 54.8307C144.272 54.4153 143.22 54.2076 142.092 54.2076C140.964 54.2076 139.912 54.4153 138.937 54.8307C137.981 55.2306 137.206 55.8461 136.614 56.6769C136.021 57.5076 135.725 58.523 135.725 59.723C135.725 60.9385 136.012 61.9615 136.585 62.7923C137.178 63.623 137.952 64.2461 138.908 64.6615C139.884 65.0614 140.935 65.2615 142.063 65.2615ZM154.985 56.0538C155.367 55.1307 156.046 54.4308 157.021 53.9538C157.996 53.4616 159.239 53.2153 160.75 53.2153V54.2999H160.319C158.79 54.2999 157.518 54.6537 156.505 55.3615C155.491 56.0538 154.985 57.1922 154.985 58.7769V66H153.694V53.4692H154.985V56.0538ZM185.84 58.8923C185.84 59.4461 185.821 59.8615 185.783 60.1384H172.332C172.37 61.2616 172.676 62.2077 173.249 62.9769C173.823 63.746 174.579 64.3229 175.515 64.7076C176.452 65.0923 177.475 65.2846 178.584 65.2846C180.114 65.2846 181.395 64.9846 182.427 64.3846C183.46 63.7691 184.11 62.9383 184.378 61.8923H185.726C185.42 63.1691 184.636 64.2076 183.374 65.0076C182.112 65.7923 180.515 66.1846 178.584 66.1846C177.131 66.1846 175.831 65.9231 174.684 65.3999C173.536 64.8768 172.638 64.1307 171.988 63.1615C171.338 62.1768 171.012 61.0308 171.012 59.723C171.012 58.4153 171.328 57.2769 171.959 56.3076C172.609 55.3384 173.508 54.5999 174.655 54.0923C175.802 53.5691 177.112 53.3076 178.584 53.3076C180.075 53.3076 181.366 53.5691 182.456 54.0923C183.565 54.5999 184.406 55.2846 184.98 56.1461C185.554 56.9923 185.84 57.9076 185.84 58.8923ZM184.55 59.2846C184.607 58.1769 184.359 57.2383 183.804 56.4692C183.269 55.7 182.533 55.1307 181.596 54.7615C180.659 54.3768 179.645 54.1846 178.555 54.1846C177.466 54.1846 176.452 54.3768 175.515 54.7615C174.597 55.1307 173.842 55.7 173.249 56.4692C172.676 57.2383 172.37 58.1769 172.332 59.2846H184.55ZM195.018 64.8692L200.754 53.4692H202.131L195.678 66H194.33L187.877 53.4692H189.282L195.018 64.8692ZM219.002 58.8923C219.002 59.4461 218.983 59.8615 218.945 60.1384H205.494C205.532 61.2616 205.838 62.2077 206.412 62.9769C206.985 63.746 207.741 64.3229 208.677 64.7076C209.614 65.0923 210.637 65.2846 211.746 65.2846C213.276 65.2846 214.557 64.9846 215.589 64.3846C216.622 63.7691 217.272 62.9383 217.54 61.8923H218.888C218.582 63.1691 217.798 64.2076 216.536 65.0076C215.274 65.7923 213.677 66.1846 211.746 66.1846C210.293 66.1846 208.993 65.9231 207.846 65.3999C206.698 64.8768 205.8 64.1307 205.15 63.1615C204.5 62.1768 204.174 61.0308 204.174 59.723C204.174 58.4153 204.49 57.2769 205.121 56.3076C205.771 55.3384 206.67 54.5999 207.817 54.0923C208.964 53.5691 210.274 53.3076 211.746 53.3076C213.238 53.3076 214.528 53.5691 215.618 54.0923C216.727 54.5999 217.568 55.2846 218.142 56.1461C218.716 56.9923 219.002 57.9076 219.002 58.8923ZM217.712 59.2846C217.769 58.1769 217.521 57.2383 216.966 56.4692C216.431 55.7 215.695 55.1307 214.758 54.7615C213.821 54.3768 212.807 54.1846 211.717 54.1846C210.628 54.1846 209.614 54.3768 208.677 54.7615C207.76 55.1307 207.004 55.7 206.412 56.4692C205.838 57.2383 205.532 58.1769 205.494 59.2846H217.712ZM224.194 56.0538C224.576 55.1307 225.255 54.4308 226.23 53.9538C227.205 53.4616 228.448 53.2153 229.958 53.2153V54.2999H229.528C227.999 54.2999 226.727 54.6537 225.714 55.3615C224.7 56.0538 224.194 57.1922 224.194 58.7769V66H222.903V53.4692H224.194V56.0538ZM245.091 53.4692L236.027 71.8846H234.708L237.605 66L231.066 53.4692H232.471L238.322 64.8461L243.771 53.4692H245.091ZM254.825 66.1846C253.372 66.1846 252.062 65.9231 250.896 65.3999C249.73 64.8768 248.812 64.1307 248.143 63.1615C247.493 62.1768 247.168 61.0308 247.168 59.723C247.168 58.4307 247.502 57.2999 248.171 56.3307C248.841 55.346 249.758 54.5999 250.925 54.0923C252.11 53.5691 253.429 53.3076 254.883 53.3076C256.336 53.3076 257.646 53.5691 258.812 54.0923C259.978 54.5999 260.886 55.3384 261.537 56.3076C262.206 57.2769 262.54 58.4153 262.54 59.723C262.54 61.0308 262.206 62.1768 261.537 63.1615C260.867 64.1307 259.94 64.8768 258.755 65.3999C257.588 65.9231 256.278 66.1846 254.825 66.1846ZM254.825 65.2615C255.953 65.2615 257.005 65.0614 257.98 64.6615C258.974 64.2461 259.768 63.623 260.361 62.7923C260.953 61.9615 261.25 60.9385 261.25 59.723C261.25 58.523 260.953 57.5076 260.361 56.6769C259.768 55.8461 258.984 55.2306 258.009 54.8307C257.034 54.4153 255.982 54.2076 254.854 54.2076C253.726 54.2076 252.674 54.4153 251.699 54.8307C250.743 55.2306 249.969 55.8461 249.376 56.6769C248.783 57.5076 248.487 58.523 248.487 59.723C248.487 60.9385 248.774 61.9615 249.347 62.7923C249.94 63.623 250.714 64.2461 251.671 64.6615C252.646 65.0614 253.697 65.2615 254.825 65.2615ZM273.483 53.2153C275.338 53.2153 276.848 53.6769 278.015 54.5999C279.181 55.5076 279.764 56.8615 279.764 58.6615V66H278.502V58.7307C278.502 57.2383 278.033 56.0999 277.097 55.3153C276.16 54.5153 274.888 54.1153 273.282 54.1153C271.6 54.1153 270.252 54.5462 269.238 55.4076C268.244 56.2691 267.747 57.5462 267.747 59.2384V66H266.456V53.4692H267.747V56.123C268.187 55.1845 268.913 54.4691 269.927 53.9769C270.959 53.4692 272.145 53.2153 273.483 53.2153ZM298.351 58.8923C298.351 59.4461 298.331 59.8615 298.294 60.1384H284.842C284.88 61.2616 285.186 62.2077 285.76 62.9769C286.333 63.746 287.088 64.3229 288.026 64.7076C288.964 65.0923 289.985 65.2846 291.095 65.2846C292.623 65.2846 293.905 64.9846 294.938 64.3846C295.97 63.7691 296.621 62.9383 296.888 61.8923H298.236C297.929 63.1691 297.146 64.2076 295.884 65.0076C294.622 65.7923 293.025 66.1846 291.095 66.1846C289.641 66.1846 288.341 65.9231 287.194 65.3999C286.046 64.8768 285.148 64.1307 284.498 63.1615C283.848 62.1768 283.522 61.0308 283.522 59.723C283.522 58.4153 283.838 57.2769 284.469 56.3076C285.119 55.3384 286.018 54.5999 287.165 54.0923C288.313 53.5691 289.623 53.3076 291.095 53.3076C292.586 53.3076 293.877 53.5691 294.967 54.0923C296.077 54.5999 296.917 55.2846 297.49 56.1461C298.064 56.9923 298.351 57.9076 298.351 58.8923ZM297.06 59.2846C297.118 58.1769 296.868 57.2383 296.315 56.4692C295.778 55.7 295.044 55.1307 294.106 54.7615C293.168 54.3768 292.156 54.1846 291.066 54.1846C289.976 54.1846 288.964 54.3768 288.026 54.7615C287.108 55.1307 286.352 55.7 285.76 56.4692C285.186 57.2383 284.88 58.1769 284.842 59.2846H297.06Z" fill="black"/>
</svg>
