<svg width="208" height="59" viewBox="0 0 208 59" fill="none" xmlns="http://www.w3.org/2000/svg">
<path d="M5.24969 9.26604L13.0447 22.6167L20.9193 9.26604H25.8111L15.2719 26.5122V36.1186H10.8176V26.4366L0.35791 9.26604H5.24969ZM34.4972 36.4968C32.3231 36.4968 30.4274 36.0303 28.81 35.0974C27.2191 34.1393 25.9862 32.8912 25.1113 31.3532C24.2363 29.7899 23.7989 28.088 23.7989 26.2474C23.7989 24.4069 24.2363 22.7175 25.1113 21.1795C26.0129 19.6162 27.2589 18.3682 28.8497 17.4353C30.4672 16.4771 32.3495 15.9981 34.4972 15.9981C36.6448 15.9981 38.514 16.4771 40.1048 17.4353C41.7223 18.3682 42.9683 19.6162 43.8432 21.1795C44.7448 22.7175 45.1954 24.4069 45.1954 26.2474C45.1954 28.088 44.7579 29.7899 43.883 31.3532C43.008 32.8912 41.762 34.1393 40.1446 35.0974C38.5537 36.0303 36.6714 36.4968 34.4972 36.4968ZM28.2929 26.2853C28.2929 27.546 28.5713 28.6806 29.1281 29.6891C29.6849 30.6976 30.4274 31.4918 31.3553 32.0718C32.2833 32.6518 33.3307 32.9417 34.4972 32.9417C35.6374 32.9417 36.6714 32.6518 37.5993 32.0718C38.5537 31.4667 39.3094 30.6598 39.8662 29.6513C40.423 28.6428 40.7014 27.5082 40.7014 26.2474C40.7014 24.9867 40.423 23.8521 39.8662 22.8436C39.3094 21.8351 38.5537 21.0409 37.5993 20.4609C36.6714 19.8558 35.6374 19.5532 34.4972 19.5532C33.3571 19.5532 32.3098 19.8558 31.3553 20.4609C30.4274 21.0409 29.6849 21.8476 29.1281 22.8814C28.5713 23.8899 28.2929 25.0245 28.2929 26.2853ZM48.8768 28.441V16.3385H53.2516V27.609C53.2516 31.1641 54.5771 32.9417 57.2286 32.9417C58.4746 32.9417 59.6546 32.5761 60.7682 31.8449C61.8818 31.0885 62.7434 30.0295 63.3533 28.668V16.3385H67.728V31.4289C67.728 31.9079 67.8207 32.2482 68.0064 32.45C68.1919 32.6518 68.4968 32.7652 68.9211 32.7904V36.1186C68.4703 36.1942 68.0991 36.2447 67.8076 36.2699C67.5159 36.295 67.2375 36.3077 66.9724 36.3077C66.177 36.3077 65.514 36.1059 64.9839 35.7026C64.4535 35.2992 64.1487 34.7571 64.0691 34.0763L63.9896 32.1096C63.0616 33.5468 61.8551 34.6436 60.3705 35.4C58.8856 36.1313 57.2551 36.4968 55.4787 36.4968C53.3044 36.4968 51.6607 35.816 50.5471 34.4545C49.4336 33.093 48.8768 31.0885 48.8768 28.441ZM96.0596 29.1974C96.0596 30.6346 95.6619 31.87 94.8665 32.9039C94.071 33.9377 93.0104 34.7319 91.6848 35.2866C90.3855 35.8412 88.9407 36.1186 87.3498 36.1186H73.8676V9.26604H88.4236C89.7492 9.26604 90.8894 9.60642 91.8439 10.2872C92.7984 10.9428 93.5407 11.8 94.071 12.859C94.6012 13.918 94.8665 15.0021 94.8665 16.1115C94.8665 17.4227 94.5085 18.6581 93.7927 19.818C93.1032 20.9526 92.109 21.7973 90.8099 22.3519C92.4007 22.8058 93.6733 23.6378 94.6278 24.8481C95.5823 26.0332 96.0596 27.4829 96.0596 29.1974ZM78.3219 12.9346V20.8391H86.5146C87.6282 20.8391 88.5561 20.4736 89.2986 19.7423C90.0409 18.9859 90.4122 18.0404 90.4122 16.9058C90.4122 15.746 90.0673 14.8004 89.3781 14.0692C88.6887 13.3128 87.8138 12.9346 86.7533 12.9346H78.3219ZM91.486 28.4032C91.486 27.2938 91.1147 26.3231 90.3724 25.491C89.6565 24.659 88.7418 24.243 87.6282 24.243H78.3219V32.45H87.3498C88.5163 32.45 89.4974 32.0591 90.2928 31.2776C91.0883 30.4707 91.486 29.5127 91.486 28.4032ZM98.6369 30.3321C98.6369 29.0713 99.008 27.9745 99.7505 27.0417C100.493 26.0835 101.527 25.3524 102.853 24.8481C104.205 24.3186 105.756 24.0539 107.506 24.0539C108.434 24.0539 109.375 24.1295 110.329 24.2808C111.31 24.4069 112.172 24.596 112.915 24.8481V23.6C112.915 22.2133 112.477 21.129 111.602 20.3474C110.727 19.5659 109.468 19.175 107.824 19.175C106.684 19.175 105.583 19.3641 104.523 19.7423C103.462 20.1205 102.362 20.6752 101.222 21.4064L99.7505 18.6077C101.129 17.7504 102.508 17.1075 103.887 16.6789C105.292 16.225 106.763 15.9981 108.301 15.9981C111.085 15.9981 113.272 16.7041 114.863 18.116C116.481 19.5027 117.289 21.4821 117.289 24.0539V31.4289C117.289 31.9079 117.369 32.2482 117.528 32.45C117.713 32.6518 118.018 32.7652 118.443 32.7904V36.1186C118.045 36.1942 117.687 36.2447 117.369 36.2699C117.051 36.295 116.785 36.3077 116.573 36.3077C115.619 36.3077 114.903 36.0935 114.426 35.6648C113.975 35.2109 113.71 34.7066 113.63 34.1519L113.511 33.0173C112.609 34.1268 111.456 34.984 110.051 35.5891C108.646 36.1942 107.227 36.4968 105.796 36.4968C104.417 36.4968 103.184 36.2321 102.097 35.7026C101.01 35.1479 100.161 34.404 99.5516 33.4712C98.9417 32.5383 98.6369 31.4918 98.6369 30.3321ZM111.881 31.5423C112.57 30.8867 112.915 30.2691 112.915 29.6891V27.4199C111.35 26.8652 109.759 26.5878 108.142 26.5878C106.551 26.5878 105.252 26.9031 104.245 27.5333C103.263 28.1385 102.773 28.9579 102.773 29.9917C102.773 30.8489 103.131 31.6431 103.847 32.3744C104.589 33.0803 105.65 33.4333 107.028 33.4333C107.956 33.4333 108.858 33.2569 109.733 32.9039C110.608 32.5508 111.324 32.097 111.881 31.5423ZM141.249 36.1186H136.874V25.0372C136.874 23.1713 136.556 21.8224 135.92 20.9904C135.31 20.1332 134.395 19.7045 133.176 19.7045C132.327 19.7045 131.479 19.9063 130.63 20.3096C129.808 20.713 129.066 21.2678 128.403 21.9737C127.74 22.6796 127.263 23.4739 126.971 24.3564V36.1186H122.597V16.3385H126.574V20.3096C127.369 18.9986 128.522 17.9521 130.034 17.1705C131.545 16.3889 133.215 15.9981 135.045 15.9981C136.689 15.9981 137.961 16.3763 138.863 17.1327C139.764 17.8639 140.387 18.8346 140.732 20.0449C141.077 21.2551 141.249 22.5915 141.249 24.0539V36.1186ZM160.803 36.1186L154.122 27.0039L150.702 30.1051V36.1186H146.327V8.50963H150.702V25.9071L160.326 16.3763H165.019L156.946 24.659L165.457 36.1186H160.803Z" fill="white"/>
<path d="M91.4524 44.5715H88.6486V54.0833H87.7538V44.5715H86.1232V43.8151H87.7538V43.0965C87.7538 42.0248 88.0387 41.2306 88.6088 40.7138C89.1789 40.1843 90.1135 39.9196 91.4127 39.9196V40.676C90.3786 40.676 89.6562 40.8651 89.2452 41.2433C88.8474 41.6215 88.6486 42.2393 88.6486 43.0965V43.8151H91.4524V44.5715ZM98.4972 54.2346C97.4896 54.2346 96.5814 54.0204 95.7729 53.5917C94.9642 53.163 94.3278 52.5516 93.8639 51.7574C93.4131 50.9505 93.1878 50.0114 93.1878 48.9397C93.1878 47.8808 93.4197 46.9542 93.8838 46.1599C94.3477 45.353 94.984 44.7417 95.7928 44.3256C96.6146 43.8969 97.5294 43.6827 98.5369 43.6827C99.5443 43.6827 100.452 43.8969 101.261 44.3256C102.07 44.7417 102.7 45.3468 103.15 46.141C103.614 46.9353 103.846 47.8681 103.846 48.9397C103.846 50.0114 103.614 50.9505 103.15 51.7574C102.686 52.5516 102.043 53.163 101.221 53.5917C100.413 54.0204 99.5046 54.2346 98.4972 54.2346ZM98.4972 53.4782C99.2793 53.4782 100.008 53.3143 100.685 52.9865C101.374 52.6462 101.924 52.1356 102.335 51.4548C102.746 50.774 102.951 49.9357 102.951 48.9397C102.951 47.9564 102.746 47.1244 102.335 46.4436C101.924 45.7628 101.381 45.2585 100.704 44.9308C100.028 44.5904 99.2992 44.4202 98.5171 44.4202C97.7348 44.4202 97.0058 44.5904 96.3297 44.9308C95.6667 45.2585 95.1298 45.7628 94.719 46.4436C94.3079 47.1244 94.1025 47.9564 94.1025 48.9397C94.1025 49.9357 94.3014 50.774 94.6991 51.4548C95.1099 52.1356 95.6468 52.6462 96.3098 52.9865C96.9859 53.3143 97.7149 53.4782 98.4972 53.4782ZM107.456 45.933C107.721 45.1766 108.192 44.6031 108.868 44.2122C109.544 43.8088 110.406 43.6071 111.453 43.6071V44.4958H111.155C110.094 44.4958 109.213 44.7857 108.51 45.3657C107.807 45.933 107.456 46.8659 107.456 48.1644V54.0833H106.561V43.8151H107.456V45.933ZM128.849 48.259C128.849 48.7128 128.836 49.0532 128.809 49.2801H119.483C119.51 50.2005 119.722 50.9758 120.12 51.6061C120.517 52.2364 121.041 52.7091 121.691 53.0244C122.34 53.3396 123.05 53.4971 123.818 53.4971C124.879 53.4971 125.767 53.2513 126.483 52.7596C127.199 52.2553 127.65 51.5745 127.835 50.7173H128.77C128.558 51.7636 128.014 52.6146 127.139 53.2702C126.264 53.9131 125.157 54.2346 123.818 54.2346C122.811 54.2346 121.909 54.0204 121.114 53.5917C120.318 53.163 119.695 52.5516 119.245 51.7574C118.794 50.9505 118.569 50.0114 118.569 48.9397C118.569 47.8681 118.787 46.9353 119.225 46.141C119.676 45.3468 120.299 44.7417 121.094 44.3256C121.889 43.8969 122.798 43.6827 123.818 43.6827C124.852 43.6827 125.747 43.8969 126.503 44.3256C127.272 44.7417 127.855 45.3027 128.253 46.0087C128.65 46.7021 128.849 47.4521 128.849 48.259ZM127.954 48.5805C127.994 47.6728 127.822 46.9037 127.437 46.2734C127.066 45.6431 126.556 45.1766 125.906 44.874C125.257 44.5588 124.554 44.4013 123.798 44.4013C123.043 44.4013 122.34 44.5588 121.691 44.874C121.054 45.1766 120.531 45.6431 120.12 46.2734C119.722 46.9037 119.51 47.6728 119.483 48.5805H127.954ZM135.213 53.1567L139.19 43.8151H140.144L135.67 54.0833H134.735L130.261 43.8151H131.235L135.213 53.1567ZM151.842 48.259C151.842 48.7128 151.828 49.0532 151.802 49.2801H142.476C142.502 50.2005 142.714 50.9758 143.112 51.6061C143.51 52.2364 144.033 52.7091 144.683 53.0244C145.333 53.3396 146.042 53.4971 146.811 53.4971C147.871 53.4971 148.759 53.2513 149.475 52.7596C150.191 52.2553 150.642 51.5745 150.827 50.7173H151.762C151.55 51.7636 151.006 52.6146 150.131 53.2702C149.257 53.9131 148.15 54.2346 146.811 54.2346C145.803 54.2346 144.902 54.0204 144.106 53.5917C143.311 53.163 142.688 52.5516 142.237 51.7574C141.786 50.9505 141.561 50.0114 141.561 48.9397C141.561 47.8681 141.78 46.9353 142.217 46.141C142.668 45.3468 143.291 44.7417 144.086 44.3256C144.882 43.8969 145.79 43.6827 146.811 43.6827C147.845 43.6827 148.74 43.8969 149.495 44.3256C150.264 44.7417 150.847 45.3027 151.245 46.0087C151.643 46.7021 151.842 47.4521 151.842 48.259ZM150.947 48.5805C150.987 47.6728 150.814 46.9037 150.43 46.2734C150.059 45.6431 149.548 45.1766 148.899 44.874C148.249 44.5588 147.546 44.4013 146.791 44.4013C146.035 44.4013 145.333 44.5588 144.683 44.874C144.047 45.1766 143.523 45.6431 143.112 46.2734C142.714 46.9037 142.502 47.6728 142.476 48.5805H150.947ZM155.441 45.933C155.706 45.1766 156.177 44.6031 156.853 44.2122C157.529 43.8088 158.391 43.6071 159.438 43.6071V44.4958H159.14C158.079 44.4958 157.198 44.7857 156.495 45.3657C155.792 45.933 155.441 46.8659 155.441 48.1644V54.0833H154.546V43.8151H155.441V45.933ZM169.929 43.8151L163.646 58.9055H162.731L164.739 54.0833L160.206 43.8151H161.18L165.237 53.1378L169.015 43.8151H169.929ZM176.679 54.2346C175.671 54.2346 174.763 54.0204 173.955 53.5917C173.146 53.163 172.51 52.5516 172.046 51.7574C171.595 50.9505 171.37 50.0114 171.37 48.9397C171.37 47.8808 171.601 46.9542 172.066 46.1599C172.529 45.353 173.166 44.7417 173.975 44.3256C174.796 43.8969 175.711 43.6827 176.719 43.6827C177.726 43.6827 178.634 43.8969 179.443 44.3256C180.251 44.7417 180.881 45.3468 181.332 46.141C181.796 46.9353 182.028 47.8681 182.028 48.9397C182.028 50.0114 181.796 50.9505 181.332 51.7574C180.868 52.5516 180.225 53.163 179.403 53.5917C178.594 54.0204 177.686 54.2346 176.679 54.2346ZM176.679 53.4782C177.461 53.4782 178.19 53.3143 178.866 52.9865C179.556 52.6462 180.106 52.1356 180.517 51.4548C180.928 50.774 181.133 49.9357 181.133 48.9397C181.133 47.9564 180.928 47.1244 180.517 46.4436C180.106 45.7628 179.562 45.2585 178.886 44.9308C178.21 44.5904 177.481 44.4202 176.699 44.4202C175.917 44.4202 175.188 44.5904 174.511 44.9308C173.848 45.2585 173.312 45.7628 172.901 46.4436C172.49 47.1244 172.284 47.9564 172.284 48.9397C172.284 49.9357 172.483 50.774 172.881 51.4548C173.292 52.1356 173.829 52.6462 174.492 52.9865C175.168 53.3143 175.897 53.4782 176.679 53.4782ZM189.615 43.6071C190.901 43.6071 191.948 43.9853 192.757 44.7417C193.565 45.4854 193.97 46.5949 193.97 48.0699V54.0833H193.095V48.1266C193.095 46.9037 192.77 45.9708 192.12 45.3279C191.471 44.6723 190.589 44.3446 189.476 44.3446C188.309 44.3446 187.374 44.6976 186.672 45.4035C185.982 46.1095 185.638 47.1559 185.638 48.5426V54.0833H184.743V43.8151H185.638V45.9897C185.943 45.2207 186.446 44.6344 187.149 44.2311C187.865 43.8151 188.687 43.6071 189.615 43.6071ZM206.857 48.259C206.857 48.7128 206.843 49.0532 206.817 49.2801H197.49C197.517 50.2005 197.729 50.9758 198.127 51.6061C198.524 52.2364 199.048 52.7091 199.698 53.0244C200.348 53.3396 201.056 53.4971 201.826 53.4971C202.886 53.4971 203.774 53.2513 204.49 52.7596C205.206 52.2553 205.658 51.5745 205.842 50.7173H206.777C206.564 51.7636 206.021 52.6146 205.146 53.2702C204.272 53.9131 203.164 54.2346 201.826 54.2346C200.817 54.2346 199.917 54.0204 199.121 53.5917C198.325 53.163 197.702 52.5516 197.252 51.7574C196.801 50.9505 196.576 50.0114 196.576 48.9397C196.576 47.8681 196.794 46.9353 197.232 46.141C197.683 45.3468 198.306 44.7417 199.101 44.3256C199.897 43.8969 200.806 43.6827 201.826 43.6827C202.86 43.6827 203.755 43.8969 204.51 44.3256C205.28 44.7417 205.862 45.3027 206.26 46.0087C206.658 46.7021 206.857 47.4521 206.857 48.259ZM205.962 48.5805C206.002 47.6728 205.829 46.9037 205.445 46.2734C205.073 45.6431 204.564 45.1766 203.914 44.874C203.263 44.5588 202.561 44.4013 201.806 44.4013C201.05 44.4013 200.348 44.5588 199.698 44.874C199.062 45.1766 198.538 45.6431 198.127 46.2734C197.729 46.9037 197.517 47.6728 197.49 48.5805H205.962Z" fill="white"/>
</svg>
